<svg width="26" height="22" viewBox="0 0 26 22" fill="none" xmlns="http://www.w3.org/2000/svg">
<path d="M19.8259 8.02901H13.6509V10.3711C13.6509 12.0314 12.3387 13.3823 10.7259 13.3823C9.1131 13.3823 7.80091 12.0314 7.80091 10.3711V5.28546L5.16435 6.91653C4.38029 7.39749 3.90092 8.27158 3.90092 9.2084V11.1866L0.650925 13.1188C0.029364 13.4868 -0.185948 14.3066 0.175614 14.9464L3.42561 20.743C3.78311 21.3829 4.57936 21.6004 5.20092 21.2324L9.40154 18.7356H14.9509C16.385 18.7356 17.5509 17.5353 17.5509 16.0589H18.2009C18.92 16.0589 19.5009 15.4609 19.5009 14.7206V12.044H19.8259C20.3662 12.044 20.8009 11.5965 20.8009 11.0402V9.03275C20.8009 8.47651 20.3662 8.02901 19.8259 8.02901ZM25.8262 6.46485L22.5762 0.668255C22.2187 0.028371 21.4225 -0.189106 20.8009 0.178932L16.6003 2.67573H12.4484C11.9609 2.67573 11.4856 2.81793 11.0712 3.08141L9.71028 3.9555C9.32841 4.19807 9.10091 4.62884 9.10091 5.08889V10.3711C9.10091 11.2953 9.8281 12.044 10.7259 12.044C11.6237 12.044 12.3509 11.2953 12.3509 10.3711V6.69069H19.8259C21.0812 6.69069 22.1009 7.74043 22.1009 9.03275V10.2247L25.3509 8.29249C25.9724 7.92027 26.1837 7.10473 25.8262 6.46485Z" fill="#FEFEFE"/>
</svg>
