<svg width="23" height="24" viewBox="0 0 23 24" fill="none" xmlns="http://www.w3.org/2000/svg">
<path d="M16.1588 20.1881L15.5272 14.6493C15.4377 13.8648 15.0896 13.1431 14.5484 12.62C14.0071 12.0968 13.31 11.8083 12.5882 11.8086H10.413C9.69152 11.8088 8.99491 12.0976 8.45408 12.6207C7.91326 13.1438 7.56544 13.8652 7.47597 14.6493L6.84336 20.1881C6.80864 20.4924 6.83343 20.8013 6.91607 21.0943C6.99872 21.3873 7.13733 21.6577 7.32271 21.8875C7.50809 22.1174 7.73598 22.3014 7.99127 22.4273C8.24655 22.5533 8.52338 22.6183 8.80337 22.6181H14.1998C14.4797 22.6181 14.7564 22.553 15.0116 22.427C15.2668 22.301 15.4945 22.1169 15.6798 21.8871C15.8651 21.6573 16.0036 21.387 16.0862 21.0941C16.1688 20.8011 16.1935 20.4923 16.1588 20.1881V20.1881Z" stroke="#FEFEFE" stroke-width="2" stroke-linecap="round" stroke-linejoin="round"/>
<path d="M11.4998 7.48569C13.135 7.48569 14.4606 6.03382 14.4606 4.24285C14.4606 2.45187 13.135 1 11.4998 1C9.86464 1 8.53906 2.45187 8.53906 4.24285C8.53906 6.03382 9.86464 7.48569 11.4998 7.48569Z" stroke="#FEFEFE" stroke-width="2"/>
<path d="M3.6037 10.7281C4.69381 10.7281 5.57751 9.76018 5.57751 8.5662C5.57751 7.37221 4.69381 6.4043 3.6037 6.4043C2.51359 6.4043 1.62988 7.37221 1.62988 8.5662C1.62988 9.76018 2.51359 10.7281 3.6037 10.7281Z" stroke="#FEFEFE" stroke-width="2"/>
<path d="M19.3967 10.7281C20.4869 10.7281 21.3706 9.76018 21.3706 8.5662C21.3706 7.37221 20.4869 6.4043 19.3967 6.4043C18.3066 6.4043 17.4229 7.37221 17.4229 8.5662C17.4229 9.76018 18.3066 10.7281 19.3967 10.7281Z" stroke="#FEFEFE" stroke-width="2"/>
<path d="M3.6047 13.9707H3.3027C2.83546 13.9706 2.38335 14.1521 2.0268 14.4829C1.67025 14.8136 1.43239 15.2722 1.35553 15.777L1.02689 17.9389C0.979727 18.2486 0.994737 18.5659 1.07087 18.8686C1.14701 19.1714 1.28245 19.4523 1.46777 19.6919C1.65309 19.9315 1.88384 20.124 2.14397 20.256C2.4041 20.3881 2.68736 20.4564 2.97406 20.4564H6.56543" stroke="#FEFEFE" stroke-width="2" stroke-linecap="round" stroke-linejoin="round"/>
<path d="M19.3953 13.9707H19.6973C20.1645 13.9706 20.6166 14.1521 20.9732 14.4829C21.3297 14.8136 21.5676 15.2722 21.6445 15.777L21.9731 17.9389C22.0203 18.2486 22.0053 18.5659 21.9291 18.8686C21.853 19.1714 21.7175 19.4523 21.5322 19.6919C21.3469 19.9315 21.1162 20.124 20.856 20.256C20.5959 20.3881 20.3126 20.4564 20.0259 20.4564H16.4346" stroke="#FEFEFE" stroke-width="2" stroke-linecap="round" stroke-linejoin="round"/>
</svg>
