<svg width="21" height="21" viewBox="0 0 21 21" fill="none" xmlns="http://www.w3.org/2000/svg">
<path d="M10.3989 18.6394L10.2575 17.6495L10.3989 18.6394ZM6.98749 18.589L6.41874 19.4115L6.98749 18.589ZM6.65738 18.3027L5.92358 18.9821L6.65738 18.3027ZM13.2235 18.2359L13.0821 17.246L13.2235 18.2359ZM17.6414 16.8637L16.8859 16.2085L17.6414 16.8637ZM13.2235 2.76407L13.0821 3.75402L13.2235 2.76407ZM17.6414 4.13628L16.8859 4.79148L17.6414 4.13628ZM6.88413 2.4875L6.2637 1.70324L6.88413 2.4875ZM6.74773 2.6058L6.05909 1.8807L6.74773 2.6058ZM10.4289 3.37499L13.0821 3.75402L13.3649 1.77413L10.7117 1.39509L10.4289 3.37499ZM17.375 8.70377V12.2962H19.375V8.70377H17.375ZM13.0821 17.246L10.2575 17.6495L10.5403 19.6294L13.3649 19.2259L13.0821 17.246ZM10.2575 17.6495C9.30934 17.7849 8.68981 17.8716 8.22444 17.8804C7.77965 17.8887 7.63215 17.819 7.55625 17.7665L6.41874 19.4115C6.9874 19.8047 7.62333 19.892 8.26195 19.88C8.88 19.8684 9.64389 19.7575 10.5403 19.6294L10.2575 17.6495ZM5.125 14.9327C5.125 15.8382 5.12319 16.6101 5.19912 17.2236C5.27757 17.8575 5.45388 18.4747 5.92358 18.9821L7.39119 17.6233C7.3285 17.5556 7.23862 17.4195 7.18398 16.978C7.12681 16.516 7.125 15.8905 7.125 14.9327H5.125ZM7.55625 17.7665C7.49617 17.7249 7.44082 17.6769 7.39119 17.6233L5.92358 18.9821C6.07245 19.1429 6.2385 19.2869 6.41874 19.4115L7.55625 17.7665ZM17.375 12.2962C17.375 13.5628 17.3731 14.419 17.2912 15.0678C17.2127 15.6887 17.0739 15.9918 16.8859 16.2085L18.3968 17.5189C18.9425 16.8898 19.1704 16.1496 19.2754 15.3185C19.3769 14.5153 19.375 13.5107 19.375 12.2962H17.375ZM13.3649 19.2259C14.5672 19.0541 15.562 18.9139 16.3427 18.6999C17.1507 18.4784 17.8512 18.1481 18.3968 17.5189L16.8859 16.2085C16.6979 16.4253 16.4176 16.6056 15.814 16.771C15.1833 16.9439 14.336 17.0669 13.0821 17.246L13.3649 19.2259ZM13.0821 3.75402C14.336 3.93315 15.1833 4.05607 15.814 4.22897C16.4176 4.39442 16.6979 4.57473 16.8859 4.79148L18.3968 3.48108C17.8512 2.85194 17.1507 2.52159 16.3427 2.30012C15.562 2.08611 14.5672 1.94588 13.3649 1.77413L13.0821 3.75402ZM19.375 8.70377C19.375 7.4893 19.3769 6.48468 19.2754 5.68152C19.1704 4.85041 18.9425 4.11022 18.3968 3.48108L16.8859 4.79148C17.0739 5.00824 17.2127 5.31125 17.2912 5.93216C17.3731 6.581 17.375 7.43718 17.375 8.70377H19.375ZM10.7117 1.39509C9.73576 1.25567 8.90431 1.13475 8.23538 1.1289C7.54158 1.12284 6.85545 1.23511 6.2637 1.70324L7.50457 3.27176C7.58635 3.20706 7.73909 3.12464 8.21789 3.12883C8.72155 3.13323 9.39643 3.2275 10.4289 3.37499L10.7117 1.39509ZM7.125 6.24044C7.125 5.1975 7.12712 4.51607 7.19399 4.01685C7.25756 3.54227 7.36075 3.40273 7.43636 3.33091L6.05909 1.8807C5.51198 2.40029 5.30381 3.06365 5.21169 3.75133C5.12288 4.41437 5.125 5.25457 5.125 6.24044H7.125ZM6.2637 1.70324C6.19286 1.75928 6.12459 1.81849 6.05909 1.8807L7.43636 3.33091C7.4582 3.31018 7.48095 3.29044 7.50457 3.27176L6.2637 1.70324Z" fill="#CCD2E3"/>
<path d="M14 10.5L14.7809 9.8753L15.2806 10.5L14.7809 11.1247L14 10.5ZM3.5 11.5C2.94771 11.5 2.5 11.0523 2.5 10.5C2.5 9.94772 2.94771 9.5 3.5 9.5V11.5ZM11.2809 5.5003L14.7809 9.8753L13.2191 11.1247L9.71913 6.7497L11.2809 5.5003ZM14.7809 11.1247L11.2809 15.4997L9.71913 14.2503L13.2191 9.8753L14.7809 11.1247ZM14 11.5H3.5V9.5H14V11.5Z" fill="#CCD2E3"/>
</svg>
